<svg xmlns="http://www.w3.org/2000/svg" viewBox="0 0 70.48 137.86"><title>Asset 2</title><g id="Layer_2" data-name="Layer 2"><g id="Layer_1-2" data-name="Layer 1"><path d="M58.36,132.58C80.51,120.71,67,88,59.09,79.18c-5.37-6-7.23-14.66,1.21-22.38C49.55,58.52,45.44,65,44.19,74.14c-5.81-4.21-7.61-10.28-4.14-16.35,3.63-6.38,8.21-12.21,12.19-18.39,5.85-9.08,9.37-18.83,7.14-29.81C58.47,5.07,56.25,1.35,50.54,0c6.62,9.89,3.27,18.27-3,25.42-8.39,9.52-17.65,18.27-26.62,27.44C15.17,45.63,21,40.24,26,34.48a9,9,0,0,0-3.33,1.35c-11,7.39-15.79,21.91-8,32.65,2.91,4,8.88,10.9,11.94,14.76L29,85.81a17,17,0,0,0,9,4c2.52.38,5,.7,7.57,1,1,.13,2.14.25,2.46,1.38a1.88,1.88,0,0,1-1.77,2.29c-1.42.21-2.86.2-4.3.28s-3.83.06-3.79,1.52,1.33,2.25,2.45,3c2.85,1.81,5.71,3.61,8.62,5.32,1.31.77,2.92,2.36,2.77,3.12a1.57,1.57,0,0,1-2,1,8.52,8.52,0,0,1-1.73-.67c-1.77-.92-3.5-1.92-5.29-2.82-1.08-.54-3.07-1-3.72-.23s.35,1.7.81,2.38c.89,1.3,2,2.47,3,3.69.79,1,1.62,1.88,2.39,2.85s1.21,2,.19,2.83-2,.16-2.8-.68c-1.9-2-3.84-4-5.77-5.93-.76-.78-2.12-1.78-2.92-.77-.53.81-.15,1.68,0,2.45.47,2,1.16,4,1.65,6,.37,1.51,1.08,3.91-.07,4.52a1.61,1.61,0,0,1-2.22-1.06c-.53-1.34-1-2.71-1.46-4.07-.56-1.55-1.08-3.12-1.72-4.64-.28-.66-.86-1.48-1.91-1.06-.63.27-.63,1.43-.69,2-.19,1.5-.29,2.87-.6,4.35-.18.87-.92,1.72-1.81,1.44s-.91-2.36-.95-3.6c-.07-2.2-.08-4.4-.21-6.59a25.13,25.13,0,0,0-3.74-11.7c-1.15-1.89-4.2-7.84-9-11.55C8,83.24,1.66,82,0,82.52,5.63,85.83,13.62,97.66,11.53,104s-3.65,9.42-4.58,14.42c-1.25,6.67,6.7,18,14.67,19.08C30.42,138.68,50.28,136.91,58.36,132.58Z"/></g></g></svg>